<mxfile host="65bd71144e">
    <diagram id="xjE6JevSB0SqWbVwdgzl" name="Page-1">
        <mxGraphModel dx="214" dy="496" grid="1" gridSize="10" guides="1" tooltips="1" connect="1" arrows="1" fold="1" page="1" pageScale="1" pageWidth="1100" pageHeight="850" math="0" shadow="0">
            <root>
                <mxCell id="0"/>
                <mxCell id="1" parent="0"/>
                <mxCell id="77" value="App" style="rounded=1;whiteSpace=wrap;fillColor=#dae8fc;strokeColor=#6c8ebf;strokeWidth=2;align=left;spacingLeft=16;" vertex="1" parent="1">
                    <mxGeometry x="140" y="80" width="100" height="209" as="geometry"/>
                </mxCell>
                <mxCell id="68" value="" style="rounded=0;whiteSpace=wrap;html=1;fillColor=#E6E6E6;dashed=1;" parent="1" vertex="1">
                    <mxGeometry x="390" y="37" width="160" height="320" as="geometry"/>
                </mxCell>
                <mxCell id="22" value=". . ." style="text;html=1;align=center;verticalAlign=middle;whiteSpace=wrap;rounded=0;fontSize=18;fontStyle=1;rotation=0;spacingBottom=8;" parent="1" vertex="1">
                    <mxGeometry x="440" y="137" width="40" height="10" as="geometry"/>
                </mxCell>
                <mxCell id="23" value="" style="rounded=0;whiteSpace=wrap;html=1;fillColor=#1ba1e2;fontColor=#ffffff;strokeColor=#0000CC;" parent="1" vertex="1">
                    <mxGeometry x="440" y="77" width="40" height="10" as="geometry"/>
                </mxCell>
                <mxCell id="24" value="" style="rounded=0;whiteSpace=wrap;html=1;fillColor=#1ba1e2;fontColor=#ffffff;strokeColor=#0000CC;" parent="1" vertex="1">
                    <mxGeometry x="440" y="97" width="40" height="10" as="geometry"/>
                </mxCell>
                <mxCell id="25" value="" style="rounded=0;whiteSpace=wrap;html=1;fillColor=#1ba1e2;fontColor=#ffffff;strokeColor=#0000CC;" parent="1" vertex="1">
                    <mxGeometry x="440" y="117" width="40" height="10" as="geometry"/>
                </mxCell>
                <mxCell id="35" value="" style="rounded=0;whiteSpace=wrap;html=1;fillColor=#1ba1e2;fontColor=#ffffff;strokeColor=#0000CC;" parent="1" vertex="1">
                    <mxGeometry x="440" y="157" width="40" height="10" as="geometry"/>
                </mxCell>
                <mxCell id="36" value="" style="rounded=0;whiteSpace=wrap;html=1;fillColor=#1ba1e2;fontColor=#ffffff;strokeColor=#0000CC;" parent="1" vertex="1">
                    <mxGeometry x="440" y="177" width="40" height="10" as="geometry"/>
                </mxCell>
                <mxCell id="37" value="1&amp;nbsp;" style="text;html=1;align=left;verticalAlign=middle;whiteSpace=wrap;rounded=0;fontSize=14;fontStyle=0;rotation=0;spacingBottom=0;" parent="1" vertex="1">
                    <mxGeometry x="490" y="77" width="30" height="10" as="geometry"/>
                </mxCell>
                <mxCell id="38" value="2" style="text;html=1;align=left;verticalAlign=middle;whiteSpace=wrap;rounded=0;fontSize=14;fontStyle=0;rotation=0;spacingBottom=0;" parent="1" vertex="1">
                    <mxGeometry x="490" y="97" width="30" height="10" as="geometry"/>
                </mxCell>
                <mxCell id="39" value="3" style="text;html=1;align=left;verticalAlign=middle;whiteSpace=wrap;rounded=0;fontSize=14;fontStyle=0;rotation=0;spacingBottom=0;" parent="1" vertex="1">
                    <mxGeometry x="490" y="117" width="30" height="10" as="geometry"/>
                </mxCell>
                <mxCell id="40" value="499" style="text;html=1;align=left;verticalAlign=middle;whiteSpace=wrap;rounded=0;fontSize=14;fontStyle=0;rotation=0;spacingBottom=0;" parent="1" vertex="1">
                    <mxGeometry x="490" y="157" width="30" height="10" as="geometry"/>
                </mxCell>
                <mxCell id="41" value="500" style="text;html=1;align=left;verticalAlign=middle;whiteSpace=wrap;rounded=0;fontSize=14;fontStyle=0;rotation=0;spacingBottom=0;" parent="1" vertex="1">
                    <mxGeometry x="490" y="177" width="30" height="10" as="geometry"/>
                </mxCell>
                <mxCell id="43" value="&amp;nbsp;..." style="text;html=1;align=center;verticalAlign=middle;whiteSpace=wrap;rounded=0;fontSize=18;fontStyle=0;rotation=90;spacingBottom=8;" parent="1" vertex="1">
                    <mxGeometry x="480" y="137" width="40" height="10" as="geometry"/>
                </mxCell>
                <mxCell id="50" value="" style="rounded=0;whiteSpace=wrap;html=1;fillColor=#1ba1e2;fontColor=#ffffff;strokeColor=#0000CC;" parent="1" vertex="1">
                    <mxGeometry x="440" y="197" width="40" height="10" as="geometry"/>
                </mxCell>
                <mxCell id="51" value="" style="rounded=0;whiteSpace=wrap;html=1;fillColor=#1ba1e2;fontColor=#ffffff;strokeColor=#0000CC;" parent="1" vertex="1">
                    <mxGeometry x="440" y="217" width="40" height="10" as="geometry"/>
                </mxCell>
                <mxCell id="52" value="501" style="text;html=1;align=left;verticalAlign=middle;whiteSpace=wrap;rounded=0;fontSize=14;fontStyle=0;rotation=0;spacingBottom=0;" parent="1" vertex="1">
                    <mxGeometry x="490" y="197" width="30" height="10" as="geometry"/>
                </mxCell>
                <mxCell id="53" value="502" style="text;html=1;align=left;verticalAlign=middle;whiteSpace=wrap;rounded=0;fontSize=14;fontStyle=0;rotation=0;spacingBottom=0;" parent="1" vertex="1">
                    <mxGeometry x="490" y="217" width="30" height="10" as="geometry"/>
                </mxCell>
                <mxCell id="54" value="" style="shape=curlyBracket;whiteSpace=wrap;html=1;rounded=1;labelPosition=left;verticalLabelPosition=middle;align=right;verticalAlign=middle;" parent="1" vertex="1">
                    <mxGeometry x="410" y="77" width="20" height="110" as="geometry"/>
                </mxCell>
                <mxCell id="55" style="edgeStyle=none;html=1;endArrow=block;endFill=1;exitX=1;exitY=0.25;exitDx=0;exitDy=0;entryX=0.1;entryY=0.5;entryDx=0;entryDy=0;entryPerimeter=0;fontColor=#808080;strokeColor=#808080;" parent="1" source="74" edge="1" target="54">
                    <mxGeometry relative="1" as="geometry">
                        <mxPoint x="400" y="132" as="targetPoint"/>
                    </mxGeometry>
                </mxCell>
                <mxCell id="56" value="Batch 1 - Token" style="edgeLabel;html=1;align=center;verticalAlign=middle;resizable=0;points=[];rotation=0;labelBackgroundColor=none;fontColor=#808080;" parent="55" vertex="1" connectable="0">
                    <mxGeometry x="-0.0174" y="2" relative="1" as="geometry">
                        <mxPoint y="-8" as="offset"/>
                    </mxGeometry>
                </mxCell>
                <mxCell id="57" value="" style="shape=curlyBracket;whiteSpace=wrap;html=1;rounded=1;labelPosition=left;verticalLabelPosition=middle;align=right;verticalAlign=middle;" parent="1" vertex="1">
                    <mxGeometry x="410" y="197" width="20" height="110" as="geometry"/>
                </mxCell>
                <mxCell id="59" value=". . ." style="text;html=1;align=center;verticalAlign=middle;whiteSpace=wrap;rounded=0;fontSize=18;fontStyle=1;rotation=0;spacingBottom=8;" parent="1" vertex="1">
                    <mxGeometry x="440" y="237" width="40" height="10" as="geometry"/>
                </mxCell>
                <mxCell id="60" value="" style="rounded=0;whiteSpace=wrap;html=1;fillColor=#1ba1e2;fontColor=#ffffff;strokeColor=#0000CC;" parent="1" vertex="1">
                    <mxGeometry x="440" y="257" width="40" height="10" as="geometry"/>
                </mxCell>
                <mxCell id="61" value="" style="rounded=0;whiteSpace=wrap;html=1;fillColor=#1ba1e2;fontColor=#ffffff;strokeColor=#0000CC;" parent="1" vertex="1">
                    <mxGeometry x="440" y="277" width="40" height="10" as="geometry"/>
                </mxCell>
                <mxCell id="62" value="" style="rounded=0;whiteSpace=wrap;html=1;fillColor=#1ba1e2;fontColor=#ffffff;strokeColor=#0000CC;" parent="1" vertex="1">
                    <mxGeometry x="440" y="297" width="40" height="10" as="geometry"/>
                </mxCell>
                <mxCell id="63" style="edgeStyle=none;html=1;endArrow=block;endFill=1;exitX=1.008;exitY=0.827;exitDx=0;exitDy=0;exitPerimeter=0;entryX=0.1;entryY=0.5;entryDx=0;entryDy=0;entryPerimeter=0;fontColor=#808080;strokeColor=#808080;" parent="1" source="74" edge="1" target="57">
                    <mxGeometry relative="1" as="geometry">
                        <mxPoint x="159" y="221" as="sourcePoint"/>
                        <mxPoint x="400" y="247" as="targetPoint"/>
                    </mxGeometry>
                </mxCell>
                <mxCell id="64" value="Batch 2 - Token" style="edgeLabel;html=1;align=center;verticalAlign=middle;resizable=0;points=[];rotation=0;labelBackgroundColor=none;fontColor=#808080;" parent="63" vertex="1" connectable="0">
                    <mxGeometry x="-0.0174" y="2" relative="1" as="geometry">
                        <mxPoint y="-8" as="offset"/>
                    </mxGeometry>
                </mxCell>
                <mxCell id="65" value="&amp;nbsp;..." style="text;html=1;align=center;verticalAlign=middle;whiteSpace=wrap;rounded=0;fontSize=18;fontStyle=0;rotation=90;spacingBottom=8;" parent="1" vertex="1">
                    <mxGeometry x="485" y="267" width="40" height="10" as="geometry"/>
                </mxCell>
                <mxCell id="66" value="1000" style="text;html=1;align=left;verticalAlign=middle;whiteSpace=wrap;rounded=0;fontSize=14;fontStyle=0;rotation=0;spacingBottom=0;" parent="1" vertex="1">
                    <mxGeometry x="490" y="297" width="30" height="10" as="geometry"/>
                </mxCell>
                <mxCell id="67" value="Repos" style="text;html=1;align=center;verticalAlign=middle;whiteSpace=wrap;rounded=0;" parent="1" vertex="1">
                    <mxGeometry x="430" y="37" width="60" height="30" as="geometry"/>
                </mxCell>
                <mxCell id="69" value="Organization" style="text;html=1;align=center;verticalAlign=middle;whiteSpace=wrap;rounded=0;strokeColor=default;dashed=1;fillColor=#CCCCCC;" parent="1" vertex="1">
                    <mxGeometry x="390" y="17" width="160" height="20" as="geometry"/>
                </mxCell>
                <mxCell id="70" value="" style="endArrow=none;dashed=1;html=1;" parent="1" edge="1">
                    <mxGeometry width="50" height="50" relative="1" as="geometry">
                        <mxPoint x="390" y="191" as="sourcePoint"/>
                        <mxPoint x="550" y="191" as="targetPoint"/>
                    </mxGeometry>
                </mxCell>
                <mxCell id="72" value="" style="endArrow=none;dashed=1;html=1;" parent="1" edge="1">
                    <mxGeometry width="50" height="50" relative="1" as="geometry">
                        <mxPoint x="390" y="311" as="sourcePoint"/>
                        <mxPoint x="550" y="311" as="targetPoint"/>
                    </mxGeometry>
                </mxCell>
                <mxCell id="73" value=". . ." style="text;html=1;align=center;verticalAlign=middle;whiteSpace=wrap;rounded=0;fontSize=18;fontStyle=1;rotation=0;spacingBottom=8;" parent="1" vertex="1">
                    <mxGeometry x="440" y="317" width="40" height="10" as="geometry"/>
                </mxCell>
                <mxCell id="74" value="Batch-Token Cache" style="rounded=0;whiteSpace=wrap;html=1;fillColor=#dae8fc;strokeColor=#6c8ebf;strokeWidth=2;" vertex="1" parent="1">
                    <mxGeometry x="200" y="80" width="80" height="209" as="geometry"/>
                </mxCell>
                <mxCell id="78" value="" style="endArrow=block;html=1;endFill=1;entryX=0;entryY=0.5;entryDx=0;entryDy=0;strokeColor=#808080;" edge="1" parent="1" target="77">
                    <mxGeometry width="50" height="50" relative="1" as="geometry">
                        <mxPoint x="50" y="185" as="sourcePoint"/>
                        <mxPoint x="320" y="170" as="targetPoint"/>
                    </mxGeometry>
                </mxCell>
                <mxCell id="79" value="GitHub Event" style="edgeLabel;html=1;align=center;verticalAlign=middle;resizable=0;points=[];labelBackgroundColor=none;fontColor=#808080;" vertex="1" connectable="0" parent="78">
                    <mxGeometry x="-0.1294" y="-1" relative="1" as="geometry">
                        <mxPoint y="-9" as="offset"/>
                    </mxGeometry>
                </mxCell>
            </root>
        </mxGraphModel>
    </diagram>
</mxfile>